<?xml version="1.0" encoding="utf-8"?>
<svg version="1.1" id="Layer_1" x="0px" y="0px" viewBox="0 0 330 330" style="enable-background:new 0 0 330 330;" xmlns="http://www.w3.org/2000/svg">
  <path id="XMLID_92_" d="M 111.213 165.004 L 250.607 25.607 C 256.465 19.749 256.465 10.252 250.607 4.394 C 244.749 -1.464 235.252 -1.464 229.394 4.395 L 79.394 154.399 C 76.58 157.211 75 161.026 75 165.004 C 75 168.983 76.581 172.798 79.394 175.611 L 229.394 325.607 C 232.322 328.536 236.161 330 240 330 C 243.839 330 247.678 328.536 250.607 325.606 C 256.465 319.748 256.465 310.251 250.607 304.393 L 111.213 165.004 Z" transform="matrix(-1, 0, 0, -1, 330.000488, 330.00064)"/>
  <g/>
  <g/>
  <g/>
  <g/>
  <g/>
  <g/>
  <g/>
  <g/>
  <g/>
  <g/>
  <g/>
  <g/>
  <g/>
  <g/>
  <g/>
</svg>