<svg xmlns:x="http://ns.adobe.com/Extensibility/1.0/" xmlns:i="http://ns.adobe.com/AdobeIllustrator/10.0/" xmlns:graph="http://ns.adobe.com/Graphs/1.0/" xmlns="http://www.w3.org/2000/svg" xmlns:xlink="http://www.w3.org/1999/xlink" xmlns:a="http://ns.adobe.com/AdobeSVGViewerExtensions/3.0/" version="1.1" baseProfile="tiny" width="42" height="42" xml:space="preserve"><rect id="backgroundrect" width="100%" height="100%" x="0" y="0" fill="none" stroke="none"/>

<g class="currentLayer" style=""><title>Layer 1</title><g id="svg_1" class="selected" fill="#ffffff" fill-opacity="1">
	<path d="M19.57,29.24L23.33,33c0,0,15.8-15.769,15.79-15.779c1.851-1.859,1.83-2.68,0-4.51c0.01-0.02-1.511-1.51-1.511-1.51   L19.57,29.24z M17.86,27.529L35.9,9.491l-3.551-3.55L14.31,23.98L17.86,27.529z M30.85,4.441l-1.5-1.5   c-1.91-1.91-2.59-1.931-4.51,0L9.05,18.721l3.76,3.76L30.85,4.441z M7.55,20.221L0.5,41.5l21.33-7L7.55,20.221z M6.05,30.859   l5.26,5.262l-7.61,2.26L6.05,30.859z" id="svg_2" fill="#ffffff" fill-opacity="1"/>
</g></g></svg>