<svg xmlns="http://www.w3.org/2000/svg" xmlns:xlink="http://www.w3.org/1999/xlink" version="1.1" style="enable-background:new 0 0 490 490;" xml:space="preserve" width="490" height="490"><rect id="backgroundrect" width="100%" height="100%" x="0" y="0" fill="none" stroke="none"/>
















<g class="currentLayer" style=""><title>Layer 1</title><g id="svg_1" class="selected" fill="#ffffff" fill-opacity="1">
	<g id="svg_2" fill="#ffffff" fill-opacity="1">
		<path d="M320.45,0H64.95v490h360.1V112L320.45,0z M254.35,428.2h-124.4c-5.4,0-10.1-4.3-10.1-10.1c0-5.4,4.3-10.1,10.1-10.1h124.4    c5.4,0,10.1,4.3,10.1,10.1C264.45,423.5,260.25,428.2,254.35,428.2z M360.15,364.4h-230.2c-5.4,0-10.1-4.3-10.1-10.1    c0-5.4,4.3-10.1,10.1-10.1h230.2c5.4,0,10.1,4.3,10.1,10.1C370.25,360.1,365.65,364.4,360.15,364.4z M360.15,301h-230.2    c-5.4,0-10.1-4.3-10.1-10.1c0-5.4,4.3-10.1,10.1-10.1h230.2c5.4,0,10.1,4.3,10.1,10.1C370.25,296.7,365.65,301,360.15,301z     M360.15,237.6h-230.2c-5.4,0-10.1-4.3-10.1-10.1s4.3-10.1,10.1-10.1h230.2c5.4,0,10.1,4.3,10.1,10.1S365.65,237.6,360.15,237.6z     M360.15,173.8h-230.2c-5.4,0-10.1-4.3-10.1-10.1c0-5.4,4.3-10.1,10.1-10.1h230.2c5.4,0,10.1,4.3,10.1,10.1    C370.25,169.6,365.65,173.8,360.15,173.8z M300.25,131.8v-112l104.6,112H300.25z" id="svg_3" fill="#ffffff" fill-opacity="1"/>
	</g>
</g><g id="svg_4">
</g><g id="svg_5">
</g><g id="svg_6">
</g><g id="svg_7">
</g><g id="svg_8">
</g><g id="svg_9">
</g><g id="svg_10">
</g><g id="svg_11">
</g><g id="svg_12">
</g><g id="svg_13">
</g><g id="svg_14">
</g><g id="svg_15">
</g><g id="svg_16">
</g><g id="svg_17">
</g><g id="svg_18">
</g></g></svg>