<svg xmlns:x="http://ns.adobe.com/Extensibility/1.0/" xmlns:i="http://ns.adobe.com/AdobeIllustrator/10.0/" xmlns:graph="http://ns.adobe.com/Graphs/1.0/" xmlns="http://www.w3.org/2000/svg" xmlns:xlink="http://www.w3.org/1999/xlink" xmlns:a="http://ns.adobe.com/AdobeSVGViewerExtensions/3.0/" version="1.1" baseProfile="tiny" width="42" height="42" xml:space="preserve"><rect id="backgroundrect" width="100%" height="100%" x="0" y="0" fill="none" stroke="none"/>

<g class="currentLayer" style=""><title>Layer 1</title><path d="M2.68,15.726c-0.1,0.039-0.16,0.09-0.18,0.149L2.68,15.726z M2.5,15.875v0.021v20.606c0,2.509,0.49,2.998,3,2.998h7  c2.51,0,3-0.461,3-3v-8h9v8.031c0,2.51,0.51,2.979,3,2.969c0.04,0.031,7,0,7,0c2.529,0,3-0.526,3-2.997V16.495  c0-0.08-0.09-0.15-0.27-0.23L20,1.5L2.68,15.726L2.5,15.875z" id="svg_1" class="selected" fill="#ffffff" fill-opacity="1"/></g></svg>