<svg xmlns:x="http://ns.adobe.com/Extensibility/1.0/" xmlns:i="http://ns.adobe.com/AdobeIllustrator/10.0/" xmlns:graph="http://ns.adobe.com/Graphs/1.0/" xmlns="http://www.w3.org/2000/svg" xmlns:xlink="http://www.w3.org/1999/xlink" xmlns:a="http://ns.adobe.com/AdobeSVGViewerExtensions/3.0/" version="1.1" baseProfile="tiny" width="42" height="42" xml:space="preserve"><rect id="backgroundrect" width="100%" height="100%" x="0" y="0" fill="none" stroke="none"/>

<g class="currentLayer" style=""><title>Layer 1</title><path d="M39.5,10.5v-1c0-1.47-0.48-2-2-2h-34c-1.53,0-2,0.52-2,2v1c0,1.55,0.52,2,2,2h34C39,12.5,39.5,12.02,39.5,10.5z M39.5,21.5  v-1c0-1.47-0.48-2-2-2h-34c-1.53,0-2,0.52-2,2v1c0,1.55,0.52,2,2,2h34C39,23.5,39.5,23.02,39.5,21.5z M39.5,32.5v-1  c0-1.471-0.48-2-2-2h-34c-1.53,0-2,0.52-2,2v1c0,1.55,0.52,2,2,2h34C39,34.5,39.5,34.02,39.5,32.5z" id="svg_1" class="selected" fill="#ffffff" fill-opacity="1"/></g></svg>