<svg xmlns:x="http://ns.adobe.com/Extensibility/1.0/" xmlns:i="http://ns.adobe.com/AdobeIllustrator/10.0/" xmlns:graph="http://ns.adobe.com/Graphs/1.0/" xmlns="http://www.w3.org/2000/svg" xmlns:xlink="http://www.w3.org/1999/xlink" xmlns:a="http://ns.adobe.com/AdobeSVGViewerExtensions/3.0/" version="1.1" baseProfile="tiny" width="42" height="42" xml:space="preserve"><rect id="backgroundrect" width="100%" height="100%" x="0" y="0" fill="none" stroke="none"/>

<g class="currentLayer" style=""><title>Layer 1</title><path d="M39.5,22.5v-3c0-1.48-0.43-2-2-2h-13v-13c0-1.48-0.49-2-2-2h-3c-1.55,0-2,0.52-2,2v13h-14c-1.48,0-2,0.49-2,2v3  c0,1.55,0.52,2,2,2h14v14c0,1.51,0.48,2,2,2h3c1.48,0,2-0.43,2-2v-14h13C39.01,24.5,39.5,24.02,39.5,22.5z" id="svg_1" class="selected" fill="#ffffff" fill-opacity="1"/></g></svg>